<svg xmlns="http://www.w3.org/2000/svg" viewBox="0 0 512 512" width="512" height="512">
  <defs>
    <linearGradient id="bgGrad" x1="0%" y1="0%" x2="100%" y2="100%">
      <stop offset="0%" stop-color="#4f46e5" />
      <stop offset="100%" stop-color="#7c3aed" />
    </linearGradient>
    <filter id="dropShadow" x="-10%" y="-10%" width="120%" height="120%">
      <feDropShadow dx="0" dy="8" stdDeviation="12" flood-color="#312e81" flood-opacity="0.3"/>
    </filter>
  </defs>
  <rect width="512" height="512" rx="112" fill="url(#bgGrad)" />
  <g transform="translate(96, 96)" filter="url(#dropShadow)">
    <circle cx="160" cy="160" r="140" fill="none" stroke="#ffffff" stroke-width="20" stroke-opacity="0.15" />
    <!-- Stethoscope Icon -->
    <path d="M 90 70 L 90 150 C 90 190 130 220 160 220 C 190 220 230 190 230 150 L 230 70" 
          fill="none" stroke="#ffffff" stroke-width="22" stroke-linecap="round" stroke-linejoin="round"/>
    <circle cx="90" cy="65" r="14" fill="#ffffff" />
    <circle cx="230" cy="65" r="14" fill="#ffffff" />
    <path d="M 160 220 L 160 250 C 160 275 180 290 205 290 C 230 290 250 270 250 240 L 250 200" 
          fill="none" stroke="#ffffff" stroke-width="22" stroke-linecap="round"/>
    <circle cx="250" cy="190" r="22" fill="#ffffff" />
    <circle cx="250" cy="190" r="10" fill="#4f46e5" />
    <!-- Medical Plus Symbol inside -->
    <rect x="150" y="100" width="20" height="60" rx="6" fill="#38bdf8" />
    <rect x="130" y="120" width="60" height="20" rx="6" fill="#38bdf8" />
  </g>
</svg>
